<?xml version="1.0" encoding="UTF-8"?>
<svg id="Layer_2" data-name="Layer 2" xmlns="http://www.w3.org/2000/svg" viewBox="0 0 512 512">
  <defs>
    <style>
      .cls-1 {
        fill: #e13a15;
      }

      .cls-2 {
        fill: #fef4f2;
      }
    </style>
  </defs>
  <g id="Layer_1-2" data-name="Layer 1">
    <g>
      <rect class="cls-1" width="512" height="512" rx="145.86" ry="145.86"/>
      <g>
        <path class="cls-2" d="M224.89,135.91l25.38-14.6c3.62-2.08,8.08-2.08,11.7.01l25.15,14.56c7.78,4.5,7.79,15.74,0,20.25l-25.29,14.67c-3.63,2.11-8.11,2.11-11.74,0l-25.23-14.63c-7.79-4.52-7.77-15.77.03-20.27Z"/>
        <path class="cls-2" d="M311.44,169.96l-32.78,18.62c-14.44,8.2-32.13,8.14-46.51-.16l-31.56-18.21c-10.87-6.28-24.27-6.27-35.14.03l-13.5,7.82c-10.84,6.28-17.51,17.85-17.51,30.38v98.89c0,12.54,6.69,24.13,17.56,30.4l31.02,17.91,55.27,31.91c10.95,6.32,24.46,6.27,35.36-.15l86.64-51c10.72-6.31,17.3-17.82,17.3-30.25v-97.76c0-12.54-6.69-24.13-17.56-30.4l-13.69-7.9c-10.78-6.23-24.06-6.27-34.89-.12ZM220.5,265.78c-5.85-3.38-13.17.84-13.17,7.6v58.55c0,4.45-4.76,7.27-8.66,5.13l-12.62-6.92c-1.87-1.03-3.04-2.99-3.04-5.13v-93.6c0-6.75,7.3-10.97,13.15-7.61l99.67,57.32c3.9,2.24,8.77-.57,8.77-5.07v-42.27c0-2.09,1.12-4.02,2.93-5.07l12.62-7.29c3.9-2.25,8.78.56,8.78,5.07v98.01c0,2.09-1.12,4.02-2.93,5.07l-12.62,7.29c-3.9,2.25-8.78-.56-8.78-5.07v-12.16c0-3.12-1.65-6-4.34-7.57"/>
      </g>
    </g>
  </g>
</svg>